# xmcd CD database file
#
# Track frame offsets:
#	150
#	13220
#	28208
#	52350
#	68182
#	80669
#	96250
#	111217
#	123859
#	142660
#	160706
#	176209
#
# Disc length: 2574 seconds
#
# Revision: 0
# Processed by: cddbd v1.5.1PL0 Copyright (c) Steve Scherf et al.
# Submitted via: CDex 1.51
#
DISCID=a70a0c0c
DTITLE=Gary McFarland - Today
DYEAR=1900
DGENRE=General Easy Listening
TTITLE0=Because
TTITLE1=My Cherie Amour
TTITLE2=Suzanne
TTITLE3=I Will Want For You
TTITLE4=Everybody's Talkin'
TTITLE5=Shadow Of Your Smile
TTITLE6=Get Back
TTITLE7=Desafinado
TTITLE8=Shadows Are Falling
TTITLE9=Michelle
TTITLE10=Sambras De Saudade
TTITLE11=Berimbau
EXTD=
EXTT0=
EXTT1=
EXTT2=
EXTT3=
EXTT4=
EXTT5=
EXTT6=
EXTT7=
EXTT8=
EXTT9=
EXTT10=
EXTT11=
PLAYORDER=
